<svg xmlns="http://www.w3.org/2000/svg" viewBox="0 0 80 80" aria-hidden="true">
  <rect width="80" height="80" rx="14" fill="#fafaf8"/>
  <path d="M10 40 L22 18 L34 34" stroke="#127572" stroke-width="5" fill="none" stroke-linecap="round" stroke-linejoin="round"/>
  <path d="M70 40 L58 18 L46 34" stroke="#127572" stroke-width="5" fill="none" stroke-linecap="round" stroke-linejoin="round"/>
  <path d="M26 32 L40 10 L54 32" stroke="#1d918d" stroke-width="5" fill="none" stroke-linecap="round" stroke-linejoin="round"/>
  <circle cx="40" cy="30" r="4.5" fill="#0a2540"/>
  <g stroke-linecap="round" stroke-linejoin="round" fill="none">
    <path d="M12 50 C 24 42, 46 44, 62 50" stroke="#127572" stroke-width="3.5"/>
    <path d="M60 46 L64 50 L60 54" stroke="#127572" stroke-width="3.5"/>
    <path d="M12 60 C 24 52, 48 54, 64 60" stroke="#0a2540" stroke-width="3.8"/>
    <path d="M62 56 L66 60 L62 64" stroke="#0a2540" stroke-width="3.8"/>
    <path d="M12 70 C 24 62, 50 64, 66 70" stroke="#127572" stroke-width="3.5"/>
    <path d="M64 66 L68 70 L64 74" stroke="#127572" stroke-width="3.5"/>
  </g>
</svg>
